<mxfile host="app.diagrams.net" modified="2023-06-29T02:13:17.933Z" agent="Mozilla/5.0 (Windows NT 10.0; Win64; x64) AppleWebKit/537.36 (KHTML, like Gecko) Chrome/114.0.0.0 Safari/537.36" version="21.5.0" etag="BGHwZ86mmesHr1m68F9y" type="github">
  <diagram name="Page-1" id="jnM4FIaVRioYchtktZdf">
    <mxGraphModel>
      <root>
        <mxCell id="0" />
        <mxCell id="1" parent="0" />
      </root>
    </mxGraphModel>
  </diagram>
</mxfile>
